<svg width="1600" height="960" viewBox="0 0 1600 960" fill="none" xmlns="http://www.w3.org/2000/svg">
  <rect width="1600" height="960" fill="#0F172A"/>
  <rect x="80" y="80" width="1440" height="800" rx="32" fill="#111827" stroke="#334155" stroke-width="2"/>
  <rect x="160" y="160" width="620" height="280" rx="24" fill="#0B1220" stroke="#1E293B" stroke-width="2"/>
  <rect x="820" y="160" width="620" height="280" rx="24" fill="#0B1220" stroke="#1E293B" stroke-width="2"/>
  <rect x="160" y="500" width="1280" height="220" rx="24" fill="#0B1220" stroke="#1E293B" stroke-width="2"/>
  <rect x="210" y="220" width="180" height="18" rx="9" fill="#3B82F6" fill-opacity="0.35"/>
  <rect x="210" y="260" width="430" height="18" rx="9" fill="#E5E7EB" fill-opacity="0.9"/>
  <rect x="210" y="300" width="360" height="14" rx="7" fill="#94A3B8" fill-opacity="0.8"/>
  <rect x="210" y="334" width="320" height="14" rx="7" fill="#64748B" fill-opacity="0.75"/>
  <circle cx="1230" cy="270" r="96" fill="#1D4ED8" fill-opacity="0.18" stroke="#3B82F6" stroke-width="2"/>
  <path d="M1190 300L1218 258L1248 286L1278 236L1310 300" stroke="#60A5FA" stroke-width="14" stroke-linecap="round" stroke-linejoin="round"/>
  <rect x="874" y="360" width="120" height="12" rx="6" fill="#3B82F6" fill-opacity="0.4"/>
  <rect x="874" y="392" width="190" height="12" rx="6" fill="#CBD5E1" fill-opacity="0.85"/>
  <rect x="160" y="770" width="260" height="52" rx="12" fill="#1D4ED8" fill-opacity="0.18" stroke="#3B82F6"/>
  <rect x="452" y="770" width="260" height="52" rx="12" fill="#111827" stroke="#475569"/>
  <rect x="744" y="770" width="260" height="52" rx="12" fill="#111827" stroke="#475569"/>
  <rect x="1036" y="770" width="260" height="52" rx="12" fill="#111827" stroke="#475569"/>
  <text x="210" y="575" fill="#F8FAFC" font-family="Arial, sans-serif" font-size="42" font-weight="700">Industrial IoT Architecture</text>
  <text x="210" y="625" fill="#94A3B8" font-family="Arial, sans-serif" font-size="24">Hardware, telemetry, and monitoring workflows under one controlled deployment path.</text>
</svg>
