<svg width="1600" height="1200" viewBox="0 0 1600 1200" fill="none" xmlns="http://www.w3.org/2000/svg">
  <rect width="1600" height="1200" fill="#F5F1E8"/>
  <rect x="72" y="72" width="1456" height="1056" rx="32" fill="#FAF7F2" stroke="#D9D0C2" stroke-width="4"/>
  <text x="120" y="156" fill="#18181B" font-family="Arial, Helvetica, sans-serif" font-size="28" font-weight="700">IoTEdges</text>
  <text x="120" y="216" fill="#18181B" font-family="Arial, Helvetica, sans-serif" font-size="64" font-weight="700">AI IoT Dashboard</text>
  <text x="120" y="266" fill="#5F5A52" font-family="Arial, Helvetica, sans-serif" font-size="28">Industrial Operations Platform</text>
  <rect x="120" y="320" width="122" height="46" rx="23" fill="#E8E0D2"/>
  <text x="152" y="350" fill="#18181B" font-family="Arial, Helvetica, sans-serif" font-size="20" font-weight="700">SCADA UI</text>
  <rect x="256" y="320" width="170" height="46" rx="23" fill="#E8E0D2"/>
  <text x="286" y="350" fill="#18181B" font-family="Arial, Helvetica, sans-serif" font-size="20" font-weight="700">MQTT / HTTP Ingest</text>
  <rect x="440" y="320" width="144" height="46" rx="23" fill="#E8E0D2"/>
  <text x="472" y="350" fill="#18181B" font-family="Arial, Helvetica, sans-serif" font-size="20" font-weight="700">AI Copilot</text>
  <rect x="860" y="232" width="492" height="720" rx="32" fill="#202228"/>
  <rect x="896" y="268" width="420" height="648" rx="20" fill="#2E323A"/>
  <rect x="928" y="312" width="356" height="170" rx="16" fill="#3C404A"/>
  <rect x="928" y="514" width="162" height="168" rx="16" fill="#3C404A"/>
  <rect x="1122" y="514" width="162" height="168" rx="16" fill="#3C404A"/>
  <rect x="928" y="714" width="356" height="152" rx="16" fill="#3C404A"/>
  <g fill="#E8E0D2">
    <rect x="954" y="344" width="42" height="106" rx="8"/>
    <rect x="1010" y="328" width="42" height="122" rx="8"/>
    <rect x="1066" y="300" width="42" height="150" rx="8"/>
    <rect x="1122" y="318" width="42" height="132" rx="8"/>
    <rect x="1178" y="354" width="42" height="96" rx="8"/>
  </g>
  <path d="M964 758C998 730 1040 726 1072 740C1104 754 1136 786 1176 782C1208 780 1232 760 1248 742" stroke="#E8E0D2" stroke-width="10" stroke-linecap="round"/>
  <text x="120" y="502" fill="#18181B" font-family="Arial, Helvetica, sans-serif" font-size="30" font-weight="700">Standard Fit</text>
  <text x="120" y="552" fill="#5F5A52" font-family="Arial, Helvetica, sans-serif" font-size="24">Industrial operations dashboard for RTUs, gateways, meters, sensors, and remote assets</text>
  <text x="120" y="620" fill="#18181B" font-family="Arial, Helvetica, sans-serif" font-size="30" font-weight="700">Standard Scope</text>
  <text x="120" y="670" fill="#5F5A52" font-family="Arial, Helvetica, sans-serif" font-size="24">Telemetry ingest, SCADA views, alarms, reports, remote control, and AI-assisted analysis</text>
  <text x="120" y="738" fill="#18181B" font-family="Arial, Helvetica, sans-serif" font-size="30" font-weight="700">Image Status</text>
  <text x="120" y="788" fill="#5F5A52" font-family="Arial, Helvetica, sans-serif" font-size="24">Controlled placeholder until final dashboard screenshots are ready</text>
</svg>
