<svg width="1600" height="900" viewBox="0 0 1600 900" fill="none" xmlns="http://www.w3.org/2000/svg">
  <rect width="1600" height="900" fill="#F5F1E8"/>
  <rect x="60" y="60" width="1480" height="780" rx="28" fill="#FAF7F2" stroke="#D9D0C2" stroke-width="4"/>
  <text x="110" y="140" fill="#18181B" font-family="Arial, Helvetica, sans-serif" font-size="28" font-weight="700">IoTEdges Architecture</text>
  <text x="110" y="206" fill="#18181B" font-family="Arial, Helvetica, sans-serif" font-size="56" font-weight="700">Building Automation</text>
  <rect x="150" y="330" width="250" height="120" rx="20" fill="#EFE7DA" stroke="#D9D0C2" stroke-width="3"/>
  <text x="223" y="384" fill="#18181B" font-family="Arial, Helvetica, sans-serif" font-size="28" font-weight="700">HVAC</text>
  <text x="183" y="420" fill="#5F5A52" font-family="Arial, Helvetica, sans-serif" font-size="20">AHU, Chiller, Thermostat</text>
  <rect x="500" y="300" width="300" height="180" rx="24" fill="#22232A"/>
  <text x="588" y="372" fill="#F5F1E8" font-family="Arial, Helvetica, sans-serif" font-size="34" font-weight="700">Gateway</text>
  <text x="566" y="416" fill="#D8D3CB" font-family="Arial, Helvetica, sans-serif" font-size="22">Modbus Data Collection</text>
  <rect x="900" y="330" width="250" height="120" rx="20" fill="#EFE7DA" stroke="#D9D0C2" stroke-width="3"/>
  <text x="964" y="384" fill="#18181B" font-family="Arial, Helvetica, sans-serif" font-size="28" font-weight="700">BMS</text>
  <text x="944" y="420" fill="#5F5A52" font-family="Arial, Helvetica, sans-serif" font-size="20">Review and Alarms</text>
  <rect x="1240" y="330" width="210" height="120" rx="20" fill="#EFE7DA" stroke="#D9D0C2" stroke-width="3"/>
  <text x="1280" y="384" fill="#18181B" font-family="Arial, Helvetica, sans-serif" font-size="28" font-weight="700">Users</text>
  <text x="1265" y="420" fill="#5F5A52" font-family="Arial, Helvetica, sans-serif" font-size="20">Facility Team</text>
  <path d="M400 390H500" stroke="#7A746B" stroke-width="8" stroke-linecap="round"/>
  <path d="M800 390H900" stroke="#7A746B" stroke-width="8" stroke-linecap="round"/>
  <path d="M1150 390H1240" stroke="#7A746B" stroke-width="8" stroke-linecap="round"/>
  <text x="150" y="620" fill="#5F5A52" font-family="Arial, Helvetica, sans-serif" font-size="24">Reference-only placeholder diagram for CMS and layout verification.</text>
</svg>
