<svg width="1600" height="1200" viewBox="0 0 1600 1200" fill="none" xmlns="http://www.w3.org/2000/svg">
  <rect width="1600" height="1200" fill="#F5F1E8"/>
  <rect x="72" y="72" width="1456" height="1056" rx="32" fill="#FAF7F2" stroke="#D9D0C2" stroke-width="4"/>
  <text x="120" y="156" fill="#18181B" font-family="Arial, Helvetica, sans-serif" font-size="28" font-weight="700">IoTEdges</text>
  <text x="120" y="216" fill="#18181B" font-family="Arial, Helvetica, sans-serif" font-size="64" font-weight="700">IEAC-140</text>
  <text x="120" y="266" fill="#5F5A52" font-family="Arial, Helvetica, sans-serif" font-size="28">4G GSM Gate Opener</text>
  <rect x="120" y="320" width="138" height="46" rx="23" fill="#E8E0D2"/>
  <text x="152" y="350" fill="#18181B" font-family="Arial, Helvetica, sans-serif" font-size="20" font-weight="700">4G LTE Gate</text>
  <rect x="272" y="320" width="126" height="46" rx="23" fill="#E8E0D2"/>
  <text x="304" y="350" fill="#18181B" font-family="Arial, Helvetica, sans-serif" font-size="20" font-weight="700">2 Relay Out</text>
  <rect x="412" y="320" width="170" height="46" rx="23" fill="#E8E0D2"/>
  <text x="441" y="350" fill="#18181B" font-family="Arial, Helvetica, sans-serif" font-size="20" font-weight="700">Access / API / SMS</text>
  <rect x="908" y="242" width="404" height="664" rx="28" fill="#202228"/>
  <rect x="944" y="278" width="332" height="592" rx="18" fill="#2E323A"/>
  <rect x="1104" y="150" width="12" height="142" rx="6" fill="#3C404A"/>
  <circle cx="1110" cy="136" r="24" fill="#C8BFB1"/>
  <rect x="972" y="334" width="276" height="122" rx="14" fill="#3C404A"/>
  <rect x="972" y="490" width="124" height="128" rx="14" fill="#E8E0D2"/>
  <rect x="1124" y="490" width="124" height="128" rx="14" fill="#E8E0D2"/>
  <rect x="972" y="652" width="276" height="150" rx="14" fill="#3C404A"/>
  <path d="M1228 824H1312V874" stroke="#5F5A52" stroke-width="10" stroke-linecap="round"/>
  <path d="M1312 824V934H1168" stroke="#5F5A52" stroke-width="10" stroke-linecap="round"/>
  <text x="120" y="502" fill="#18181B" font-family="Arial, Helvetica, sans-serif" font-size="30" font-weight="700">Standard Fit</text>
  <text x="120" y="552" fill="#5F5A52" font-family="Arial, Helvetica, sans-serif" font-size="24">European gate, barrier, garage door, and remote access control projects</text>
  <text x="120" y="620" fill="#18181B" font-family="Arial, Helvetica, sans-serif" font-size="30" font-weight="700">Standard Baseline</text>
  <text x="120" y="670" fill="#5F5A52" font-family="Arial, Helvetica, sans-serif" font-size="24">2 relay outputs, 2 digital inputs, 4G uplink, access workflows, and external antenna</text>
  <text x="120" y="738" fill="#18181B" font-family="Arial, Helvetica, sans-serif" font-size="30" font-weight="700">Image Status</text>
  <text x="120" y="788" fill="#5F5A52" font-family="Arial, Helvetica, sans-serif" font-size="24">Controlled placeholder until final product photography is ready</text>
</svg>
