<svg width="1600" height="1200" viewBox="0 0 1600 1200" fill="none" xmlns="http://www.w3.org/2000/svg">
  <rect width="1600" height="1200" fill="#F5F1E8"/>
  <rect x="72" y="72" width="1456" height="1056" rx="32" fill="#FAF7F2" stroke="#D9D0C2" stroke-width="4"/>
  <text x="120" y="156" fill="#18181B" font-family="Arial, Helvetica, sans-serif" font-size="28" font-weight="700">IoTEdges</text>
  <text x="120" y="216" fill="#18181B" font-family="Arial, Helvetica, sans-serif" font-size="64" font-weight="700">IER-141</text>
  <text x="120" y="266" fill="#5F5A52" font-family="Arial, Helvetica, sans-serif" font-size="28">4G Pump &amp; Valve RTU</text>
  <rect x="120" y="320" width="162" height="46" rx="23" fill="#E8E0D2"/>
  <text x="151" y="350" fill="#18181B" font-family="Arial, Helvetica, sans-serif" font-size="20" font-weight="700">4DI / 4DO / 2AI</text>
  <rect x="296" y="320" width="138" height="46" rx="23" fill="#E8E0D2"/>
  <text x="328" y="350" fill="#18181B" font-family="Arial, Helvetica, sans-serif" font-size="20" font-weight="700">4G LTE Cat1</text>
  <rect x="448" y="320" width="164" height="46" rx="23" fill="#E8E0D2"/>
  <text x="478" y="350" fill="#18181B" font-family="Arial, Helvetica, sans-serif" font-size="20" font-weight="700">Pump / Valve RTU</text>
  <rect x="900" y="240" width="420" height="660" rx="28" fill="#202228"/>
  <rect x="936" y="278" width="348" height="584" rx="18" fill="#2E323A"/>
  <rect x="1110" y="158" width="12" height="148" rx="6" fill="#3C404A"/>
  <circle cx="1116" cy="144" r="26" fill="#C8BFB1"/>
  <g fill="#E8E0D2">
    <rect x="964" y="330" width="48" height="196" rx="10"/>
    <rect x="1022" y="330" width="48" height="196" rx="10"/>
    <rect x="1080" y="330" width="48" height="196" rx="10"/>
    <rect x="1138" y="330" width="48" height="196" rx="10"/>
    <rect x="1196" y="330" width="48" height="196" rx="10"/>
  </g>
  <g fill="#C8BFB1">
    <circle cx="1000" cy="612" r="24"/>
    <circle cx="1072" cy="612" r="24"/>
    <circle cx="1144" cy="612" r="24"/>
    <circle cx="1216" cy="612" r="24"/>
  </g>
  <rect x="964" y="694" width="280" height="124" rx="14" fill="#3C404A"/>
  <text x="120" y="502" fill="#18181B" font-family="Arial, Helvetica, sans-serif" font-size="30" font-weight="700">Standard Fit</text>
  <text x="120" y="552" fill="#5F5A52" font-family="Arial, Helvetica, sans-serif" font-size="24">Pump stations, valve chambers, irrigation cabinets, and water-site RTU control</text>
  <text x="120" y="620" fill="#18181B" font-family="Arial, Helvetica, sans-serif" font-size="30" font-weight="700">Standard Baseline</text>
  <text x="120" y="670" fill="#5F5A52" font-family="Arial, Helvetica, sans-serif" font-size="24">4DI + 4DO + 2AI with 4G uplink, RS485, MQTT, alarms, schedules, and OTA</text>
  <text x="120" y="738" fill="#18181B" font-family="Arial, Helvetica, sans-serif" font-size="30" font-weight="700">Image Status</text>
  <text x="120" y="788" fill="#5F5A52" font-family="Arial, Helvetica, sans-serif" font-size="24">Controlled placeholder until final product photography is ready</text>
</svg>
