<svg width="1600" height="900" viewBox="0 0 1600 900" fill="none" xmlns="http://www.w3.org/2000/svg">
  <rect width="1600" height="900" fill="#F5F1E8"/>
  <rect x="60" y="60" width="1480" height="780" rx="28" fill="#FAF7F2" stroke="#D9D0C2" stroke-width="4"/>
  <text x="110" y="140" fill="#18181B" font-family="Arial, Helvetica, sans-serif" font-size="28" font-weight="700">IoTEdges Solution</text>
  <text x="110" y="216" fill="#18181B" font-family="Arial, Helvetica, sans-serif" font-size="64" font-weight="700">Solar &amp; Renewable Energy</text>
  <text x="110" y="266" fill="#5F5A52" font-family="Arial, Helvetica, sans-serif" font-size="28">Inverter telemetry, site visibility, alarms and performance dashboards</text>
  <rect x="110" y="320" width="122" height="44" rx="22" fill="#E8E0D2"/>
  <text x="145" y="349" fill="#18181B" font-family="Arial, Helvetica, sans-serif" font-size="20" font-weight="700">Gateway</text>
  <rect x="248" y="320" width="136" height="44" rx="22" fill="#E8E0D2"/>
  <text x="277" y="349" fill="#18181B" font-family="Arial, Helvetica, sans-serif" font-size="20" font-weight="700">Ethernet</text>
  <rect x="980" y="160" width="410" height="520" rx="28" fill="#22232A"/>
  <rect x="1014" y="194" width="342" height="452" rx="20" fill="#2C2F38"/>
  <circle cx="1098" cy="300" r="42" fill="#E8E0D2"/>
  <path d="M1166 388L1218 282L1270 388H1166Z" fill="#3A3D48"/>
  <rect x="1048" y="430" width="274" height="70" rx="14" fill="#3A3D48"/>
  <rect x="1048" y="526" width="274" height="80" rx="14" fill="#E8E0D2"/>
  <rect x="160" y="436" width="540" height="118" rx="22" fill="#EFE7DA"/>
  <text x="194" y="484" fill="#18181B" font-family="Arial, Helvetica, sans-serif" font-size="30" font-weight="700">Typical Fit</text>
  <text x="194" y="530" fill="#5F5A52" font-family="Arial, Helvetica, sans-serif" font-size="24">Inverter cabinets, rooftop sites, solar skids, renewable monitoring rooms</text>
  <rect x="160" y="590" width="540" height="118" rx="22" fill="#EFE7DA"/>
  <text x="194" y="638" fill="#18181B" font-family="Arial, Helvetica, sans-serif" font-size="30" font-weight="700">Asset Status</text>
  <text x="194" y="684" fill="#5F5A52" font-family="Arial, Helvetica, sans-serif" font-size="24">Controlled placeholder until final solar and renewable imagery is ready</text>
</svg>
