<svg width="1600" height="900" viewBox="0 0 1600 900" fill="none" xmlns="http://www.w3.org/2000/svg">
  <rect width="1600" height="900" fill="#F5F1E8"/>
  <rect x="60" y="60" width="1480" height="780" rx="28" fill="#FAF7F2" stroke="#D9D0C2" stroke-width="4"/>
  <text x="110" y="140" fill="#18181B" font-family="Arial, Helvetica, sans-serif" font-size="28" font-weight="700">IoTEdges Architecture</text>
  <text x="110" y="206" fill="#18181B" font-family="Arial, Helvetica, sans-serif" font-size="56" font-weight="700">Water Management</text>
  <rect x="150" y="330" width="230" height="120" rx="20" fill="#EFE7DA" stroke="#D9D0C2" stroke-width="3"/>
  <text x="211" y="384" fill="#18181B" font-family="Arial, Helvetica, sans-serif" font-size="28" font-weight="700">Sensors</text>
  <text x="180" y="420" fill="#5F5A52" font-family="Arial, Helvetica, sans-serif" font-size="20">Level, Flow, Pressure</text>
  <rect x="470" y="330" width="230" height="120" rx="20" fill="#EFE7DA" stroke="#D9D0C2" stroke-width="3"/>
  <text x="552" y="384" fill="#18181B" font-family="Arial, Helvetica, sans-serif" font-size="28" font-weight="700">Pumps</text>
  <text x="530" y="420" fill="#5F5A52" font-family="Arial, Helvetica, sans-serif" font-size="20">Valves and VFD</text>
  <rect x="790" y="300" width="280" height="180" rx="24" fill="#22232A"/>
  <text x="878" y="372" fill="#F5F1E8" font-family="Arial, Helvetica, sans-serif" font-size="34" font-weight="700">RTU</text>
  <text x="840" y="416" fill="#D8D3CB" font-family="Arial, Helvetica, sans-serif" font-size="22">Telemetry and Control</text>
  <rect x="1160" y="330" width="260" height="120" rx="20" fill="#EFE7DA" stroke="#D9D0C2" stroke-width="3"/>
  <text x="1232" y="384" fill="#18181B" font-family="Arial, Helvetica, sans-serif" font-size="28" font-weight="700">Dashboard</text>
  <text x="1216" y="420" fill="#5F5A52" font-family="Arial, Helvetica, sans-serif" font-size="20">Alarms and Trends</text>
  <path d="M380 390H470" stroke="#7A746B" stroke-width="8" stroke-linecap="round"/>
  <path d="M700 390H790" stroke="#7A746B" stroke-width="8" stroke-linecap="round"/>
  <path d="M1070 390H1160" stroke="#7A746B" stroke-width="8" stroke-linecap="round"/>
  <text x="150" y="620" fill="#5F5A52" font-family="Arial, Helvetica, sans-serif" font-size="24">Reference-only placeholder diagram for CMS and layout verification.</text>
</svg>
