<svg width="1600" height="900" viewBox="0 0 1600 900" fill="none" xmlns="http://www.w3.org/2000/svg">
  <rect width="1600" height="900" fill="#0F172A"/>
  <rect x="90" y="90" width="1420" height="720" rx="36" fill="#111827" stroke="#334155" stroke-width="2"/>
  <rect x="170" y="170" width="520" height="520" rx="28" fill="#0B1220" stroke="#1E293B" stroke-width="2"/>
  <rect x="750" y="170" width="680" height="180" rx="24" fill="#0B1220" stroke="#1E293B" stroke-width="2"/>
  <rect x="750" y="390" width="680" height="300" rx="24" fill="#0B1220" stroke="#1E293B" stroke-width="2"/>
  <rect x="220" y="240" width="220" height="20" rx="10" fill="#3B82F6" fill-opacity="0.35"/>
  <rect x="220" y="286" width="340" height="18" rx="9" fill="#E5E7EB" fill-opacity="0.9"/>
  <rect x="220" y="326" width="250" height="14" rx="7" fill="#94A3B8" fill-opacity="0.8"/>
  <rect x="220" y="420" width="120" height="120" rx="20" fill="#1D4ED8" fill-opacity="0.18" stroke="#3B82F6"/>
  <path d="M258 468H302" stroke="#60A5FA" stroke-width="10" stroke-linecap="round"/>
  <path d="M248 500L280 530L332 458" stroke="#BFDBFE" stroke-width="12" stroke-linecap="round" stroke-linejoin="round"/>
  <rect x="800" y="230" width="160" height="16" rx="8" fill="#3B82F6" fill-opacity="0.4"/>
  <rect x="800" y="272" width="450" height="16" rx="8" fill="#E5E7EB" fill-opacity="0.92"/>
  <rect x="800" y="312" width="380" height="12" rx="6" fill="#64748B" fill-opacity="0.8"/>
  <rect x="800" y="450" width="270" height="18" rx="9" fill="#CBD5E1" fill-opacity="0.9"/>
  <rect x="800" y="492" width="560" height="14" rx="7" fill="#64748B" fill-opacity="0.78"/>
  <rect x="800" y="528" width="520" height="14" rx="7" fill="#64748B" fill-opacity="0.72"/>
  <rect x="800" y="594" width="220" height="58" rx="14" fill="#1D4ED8" fill-opacity="0.18" stroke="#3B82F6"/>
  <text x="220" y="618" fill="#F8FAFC" font-family="Arial, sans-serif" font-size="40" font-weight="700">Project Inquiry</text>
  <text x="220" y="664" fill="#94A3B8" font-family="Arial, sans-serif" font-size="22">Hardware, protocol, and deployment fit review for industrial IoT projects.</text>
</svg>
